<?xml version="1.0" encoding="UTF-8"?>
<!DOCTYPE svg PUBLIC "-//W3C//DTD SVG 1.1//EN" "http://www.w3.org/Graphics/SVG/1.1/DTD/svg11.dtd">
<svg xmlns="http://www.w3.org/2000/svg" version="1.1" width="512px" height="512px" style="shape-rendering:geometricPrecision; text-rendering:geometricPrecision; image-rendering:optimizeQuality; fill-rule:evenodd; clip-rule:evenodd" xmlns:xlink="http://www.w3.org/1999/xlink">
<g><path style="opacity:0.993" fill="#7b15fe" d="M 42.5,35.5 C 177.5,35.3333 312.5,35.5 447.5,36C 481.333,43.1667 501.833,63.6667 509,97.5C 512.627,133.087 498.794,159.253 467.5,176C 460.598,178.915 453.598,181.081 446.5,182.5C 319.5,182.5 192.5,182.5 65.5,182.5C 62.8333,182.5 60.1667,182.5 57.5,182.5C 54.9098,169.882 52.5764,157.215 50.5,144.5C 180.5,144.667 310.5,144.5 440.5,144C 462.993,138.821 473.16,124.654 471,101.5C 467.056,86.5553 457.556,77.3887 442.5,74C 309.5,73.5 176.5,73.3333 43.5,73.5C 43.1667,73.5 42.8333,73.5 42.5,73.5C 42.5,60.8333 42.5,48.1667 42.5,35.5 Z"/></g>
<g><path style="opacity:1" fill="#4d00c6" d="M -0.5,35.5 C 13.8333,35.5 28.1667,35.5 42.5,35.5C 42.5,48.1667 42.5,60.8333 42.5,73.5C 38.9581,73.1872 35.6248,73.5206 32.5,74.5C 21.5,74.5 10.5,74.5 -0.5,74.5C -0.5,61.5 -0.5,48.5 -0.5,35.5 Z"/></g>
<g><path style="opacity:1" fill="#a76fff" d="M 436.5,50.5 C 472.095,53.0954 492.095,72.0954 496.5,107.5C 496.183,120.95 492.183,133.117 484.5,144C 481.138,145.293 479.138,144.293 478.5,141C 481.722,134.718 484.555,128.218 487,121.5C 491.58,92.4851 480.413,72.3185 453.5,61C 447.545,59.5089 441.545,58.3422 435.5,57.5C 434.167,54.8619 434.5,52.5286 436.5,50.5 Z"/></g>
<g><path style="opacity:0.999" fill="#efb14d" d="M 42.5,73.5 C 42.8333,73.5 43.1667,73.5 43.5,73.5C 43.5,80.1667 43.5,86.8333 43.5,93.5C 173.834,93.3333 304.167,93.5 434.5,94C 438.037,95.8265 438.371,98.1598 435.5,101C 305.5,101.5 175.5,101.667 45.5,101.5C 45.5029,106.527 45.8363,111.527 46.5,116.5C 176.167,116.333 305.834,116.5 435.5,117C 438.172,119.679 437.838,122.012 434.5,124C 305.5,124.5 176.5,124.667 47.5,124.5C 48.6333,131.185 49.6333,137.851 50.5,144.5C 44.31,144.823 38.31,144.49 32.5,143.5C 32.8297,137.132 32.4963,130.798 31.5,124.5C 27.517,121.385 27.6836,118.385 32,115.5C 32.4992,110.845 32.6658,106.179 32.5,101.5C 29.8787,101.523 28.5454,100.189 28.5,97.5C 28.7282,95.6031 29.7282,94.2697 31.5,93.5C 32.4963,87.2015 32.8297,80.8682 32.5,74.5C 35.6248,73.5206 38.9581,73.1872 42.5,73.5 Z"/></g>
<g><path style="opacity:0.999" fill="#fecd75" d="M 43.5,73.5 C 176.5,73.3333 309.5,73.5 442.5,74C 457.556,77.3887 467.056,86.5553 471,101.5C 473.16,124.654 462.993,138.821 440.5,144C 310.5,144.5 180.5,144.667 50.5,144.5C 49.6333,137.851 48.6333,131.185 47.5,124.5C 176.5,124.667 305.5,124.5 434.5,124C 437.838,122.012 438.172,119.679 435.5,117C 305.834,116.5 176.167,116.333 46.5,116.5C 45.8363,111.527 45.5029,106.527 45.5,101.5C 175.5,101.667 305.5,101.5 435.5,101C 438.371,98.1598 438.037,95.8265 434.5,94C 304.167,93.5 173.834,93.3333 43.5,93.5C 43.5,86.8333 43.5,80.1667 43.5,73.5 Z"/></g>
<g><path style="opacity:1" fill="#4d00c6" d="M -0.5,143.5 C 10.5,143.5 21.5,143.5 32.5,143.5C 38.31,144.49 44.31,144.823 50.5,144.5C 52.5764,157.215 54.9098,169.882 57.5,182.5C 38.1667,182.5 18.8333,182.5 -0.5,182.5C -0.5,169.5 -0.5,156.5 -0.5,143.5 Z"/></g>
<g><path style="opacity:1" fill="#a66eff" d="M 455.5,155.5 C 458.916,154.866 460.916,156.2 461.5,159.5C 461.291,160.994 460.624,162.161 459.5,163C 453.353,165.287 447.019,166.787 440.5,167.5C 435.006,167.51 433.339,165.01 435.5,160C 442.533,159.563 449.2,158.063 455.5,155.5 Z"/></g>
<g><path style="opacity:0.986" fill="#fe8177" d="M 65.5,182.5 C 192.5,182.5 319.5,182.5 446.5,182.5C 468.167,182.5 489.833,182.5 511.5,182.5C 511.5,195.5 511.5,208.5 511.5,221.5C 500.5,221.5 489.5,221.5 478.5,221.5C 342.334,220.5 206.001,220.167 69.5,220.5C 69.1667,220.5 68.8333,220.5 68.5,220.5C 67.9812,215.278 66.6478,210.278 64.5,205.5C 68.0071,206.006 71.1737,205.34 74,203.5C 74.6667,201.833 74.6667,200.167 74,198.5C 69.9341,197.536 65.7675,197.203 61.5,197.5C 60.7069,193.12 59.7069,188.787 58.5,184.5C 60.9521,183.935 63.2854,183.268 65.5,182.5 Z"/></g>
<g><path style="opacity:0.991" fill="#fe5f5b" d="M 58.5,184.5 C 59.7069,188.787 60.7069,193.12 61.5,197.5C 35.216,203.284 19.0494,219.284 13,245.5C 10.691,261.643 14.191,276.31 23.5,289.5C 28.7975,292.389 30.9641,290.723 30,284.5C 14.8636,259.149 18.0303,236.316 39.5,216C 46.9102,210.295 55.2436,206.795 64.5,205.5C 66.6478,210.278 67.9812,215.278 68.5,220.5C 46.2958,225.205 36.1291,238.872 38,261.5C 41.9377,277.771 52.1043,287.604 68.5,291C 81.1623,291.5 93.8289,291.667 106.5,291.5C 106.833,291.5 107.167,291.5 107.5,291.5C 115.998,304.675 125.665,317.008 136.5,328.5C 110.167,328.5 83.8333,328.5 57.5,328.5C 25.8381,319.839 6.50473,299.506 -0.5,267.5C -0.5,259.5 -0.5,251.5 -0.5,243.5C 6.12018,211.877 25.1202,191.877 56.5,183.5C 57.4164,183.543 58.0831,183.876 58.5,184.5 Z"/></g>
<g><path style="opacity:1" fill="#e53131" d="M 61.5,197.5 C 65.7675,197.203 69.9341,197.536 74,198.5C 74.6667,200.167 74.6667,201.833 74,203.5C 71.1737,205.34 68.0071,206.006 64.5,205.5C 55.2436,206.795 46.9102,210.295 39.5,216C 18.0303,236.316 14.8636,259.149 30,284.5C 30.9641,290.723 28.7975,292.389 23.5,289.5C 14.191,276.31 10.691,261.643 13,245.5C 19.0494,219.284 35.216,203.284 61.5,197.5 Z"/></g>
<g><path style="opacity:0.999" fill="#efb14e" d="M 68.5,220.5 C 68.8333,220.5 69.1667,220.5 69.5,220.5C 71.8758,226.923 74.5425,233.256 77.5,239.5C 211.165,240.5 344.832,240.833 478.5,240.5C 481.167,242.833 481.167,245.167 478.5,247.5C 346.236,248.332 213.903,248.832 81.5,249C 83.8333,253.333 86.1667,257.667 88.5,262C 218.57,262.168 348.57,262.668 478.5,263.5C 481.167,265.833 481.167,268.167 478.5,270.5C 350.165,270.167 221.832,270.5 93.5,271.5C 97.8438,278.195 102.177,284.862 106.5,291.5C 93.8289,291.667 81.1623,291.5 68.5,291C 52.1043,287.604 41.9377,277.771 38,261.5C 36.1291,238.872 46.2958,225.205 68.5,220.5 Z"/></g>
<g><path style="opacity:1" fill="#fecc75" d="M 69.5,220.5 C 206.001,220.167 342.334,220.5 478.5,221.5C 478.5,227.833 478.5,234.167 478.5,240.5C 344.832,240.833 211.165,240.5 77.5,239.5C 74.5425,233.256 71.8758,226.923 69.5,220.5 Z"/></g>
<g><path style="opacity:1" fill="#fecd75" d="M 478.5,247.5 C 478.5,252.833 478.5,258.167 478.5,263.5C 348.57,262.668 218.57,262.168 88.5,262C 86.1667,257.667 83.8333,253.333 81.5,249C 213.903,248.832 346.236,248.332 478.5,247.5 Z"/></g>
<g><path style="opacity:1" fill="#fecd75" d="M 478.5,270.5 C 478.5,277.5 478.5,284.5 478.5,291.5C 354.833,291.5 231.167,291.5 107.5,291.5C 107.167,291.5 106.833,291.5 106.5,291.5C 102.177,284.862 97.8438,278.195 93.5,271.5C 221.832,270.5 350.165,270.167 478.5,270.5 Z"/></g>
<g><path style="opacity:1" fill="#fe8277" d="M 107.5,291.5 C 231.167,291.5 354.833,291.5 478.5,291.5C 489.5,291.5 500.5,291.5 511.5,291.5C 511.5,304.167 511.5,316.833 511.5,329.5C 491.833,329.5 472.167,329.5 452.5,329.5C 449.5,329.5 446.5,329.5 443.5,329.5C 341.335,328.501 239.001,328.167 136.5,328.5C 125.665,317.008 115.998,304.675 107.5,291.5 Z"/></g>
<g><path style="opacity:1" fill="#e53131" d="M 48.5,302.5 C 56.3351,304.623 64.3351,305.79 72.5,306C 74.3959,307.808 74.8959,309.975 74,312.5C 65.6339,314.198 57.4672,313.365 49.5,310C 46.0338,307.806 45.7005,305.306 48.5,302.5 Z"/></g>
<g><path style="opacity:1" fill="#2cb8bf" d="M -0.5,328.5 C 18.8333,328.5 38.1667,328.5 57.5,328.5C 83.8333,328.5 110.167,328.5 136.5,328.5C 239.001,328.167 341.335,328.501 443.5,329.5C 341.833,329.333 240.166,329.5 138.5,330C 151.468,343.146 165.135,355.312 179.5,366.5C 130.33,366.168 81.3305,366.501 32.5,367.5C 21.5,367.5 10.5,367.5 -0.5,367.5C -0.5,354.5 -0.5,341.5 -0.5,328.5 Z"/></g>
<g><path style="opacity:0.998" fill="#44d3e1" d="M 443.5,329.5 C 446.5,329.5 449.5,329.5 452.5,329.5C 483.554,338.391 502.387,358.724 509,390.5C 511.716,409.437 507.882,426.77 497.5,442.5C 467.974,441.14 438.307,439.473 408.5,437.5C 421.213,437.874 433.88,437.374 446.5,436C 468.579,426.122 475.746,409.622 468,386.5C 462.967,377.392 455.467,371.225 445.5,368C 357.203,366.513 268.869,366.013 180.5,366.5C 180.167,366.5 179.833,366.5 179.5,366.5C 165.135,355.312 151.468,343.146 138.5,330C 240.166,329.5 341.833,329.333 443.5,329.5 Z"/></g>
<g><path style="opacity:1" fill="#91f8fe" d="M 436.5,343.5 C 472.123,346.124 492.123,365.124 496.5,400.5C 496.417,414.018 492.417,426.184 484.5,437C 481.138,438.293 479.138,437.293 478.5,434C 481.722,427.718 484.555,421.218 487,414.5C 491.646,384.944 480.146,364.777 452.5,354C 446.963,352.274 441.296,351.274 435.5,351C 434.046,348.216 434.379,345.716 436.5,343.5 Z"/></g>
<g><path style="opacity:0.999" fill="#efb14d" d="M 179.5,366.5 C 179.833,366.5 180.167,366.5 180.5,366.5C 189.444,373.92 199.11,380.42 209.5,386C 284.5,386.333 359.5,386.667 434.5,387C 437.838,388.988 438.172,391.321 435.5,394C 365.5,394.333 295.5,394.667 225.5,395C 235.933,400.217 246.599,404.883 257.5,409C 316.833,409.333 376.167,409.667 435.5,410C 438.371,412.84 438.037,415.174 434.5,417C 384.167,417.333 333.833,417.667 283.5,418C 318.725,427.547 354.392,434.047 390.5,437.5C 270.999,437.833 151.666,437.5 32.5,436.5C 32.8297,430.132 32.4963,423.798 31.5,417.5C 28.5053,415.857 27.8386,413.523 29.5,410.5C 30.325,409.614 31.325,409.281 32.5,409.5C 32.6658,404.821 32.4992,400.155 32,395.5C 27.6836,392.615 27.517,389.615 31.5,386.5C 32.4963,380.202 32.8297,373.868 32.5,367.5C 81.3305,366.501 130.33,366.168 179.5,366.5 Z"/></g>
<g><path style="opacity:1" fill="#fecd75" d="M 180.5,366.5 C 268.869,366.013 357.203,366.513 445.5,368C 455.467,371.225 462.967,377.392 468,386.5C 475.746,409.622 468.579,426.122 446.5,436C 433.88,437.374 421.213,437.874 408.5,437.5C 402.5,437.5 396.5,437.5 390.5,437.5C 354.392,434.047 318.725,427.547 283.5,418C 333.833,417.667 384.167,417.333 434.5,417C 438.037,415.174 438.371,412.84 435.5,410C 376.167,409.667 316.833,409.333 257.5,409C 246.599,404.883 235.933,400.217 225.5,395C 295.5,394.667 365.5,394.333 435.5,394C 438.172,391.321 437.838,388.988 434.5,387C 359.5,386.667 284.5,386.333 209.5,386C 199.11,380.42 189.444,373.92 180.5,366.5 Z"/></g>
<g><path style="opacity:1" fill="#25b8bf" d="M -0.5,436.5 C 10.5,436.5 21.5,436.5 32.5,436.5C 151.666,437.5 270.999,437.833 390.5,437.5C 396.5,437.5 402.5,437.5 408.5,437.5C 438.307,439.473 467.974,441.14 497.5,442.5C 485.69,460.585 469.023,471.419 447.5,475C 298.167,475.5 148.834,475.667 -0.5,475.5C -0.5,462.5 -0.5,449.5 -0.5,436.5 Z"/></g>
<g><path style="opacity:1" fill="#90f7fc" d="M 455.5,448.5 C 460.881,448.452 462.547,450.952 460.5,456C 452.185,459.269 443.685,460.436 435,459.5C 434.242,457.231 434.409,455.064 435.5,453C 440.511,452.415 445.511,451.749 450.5,451C 452.491,450.626 454.158,449.793 455.5,448.5 Z"/></g>
</svg>
